<?xml version="1.0" standalone="no"?>
<!DOCTYPE svg PUBLIC "-//W3C//DTD SVG 20010904//EN"
 "http://www.w3.org/TR/2001/REC-SVG-20010904/DTD/svg10.dtd">
<svg version="1.0" xmlns="http://www.w3.org/2000/svg"
 width="468pt" height="114pt" viewBox="0 0 468 114"
 preserveAspectRatio="xMidYMid meet">
<metadata>
Created by POTRACE VERSION, written by Peter Selinger 2001-2007
</metadata>
<g transform="translate(0,114) scale(0.052000,-0.052000)"
fill="#000000" stroke="none">
<path d="M5724 2101 c-21 -21 -57 -56 -79 -77 -22 -22 -60 -60 -84 -86 -24
-27 -50 -48 -56 -48 -7 0 -50 -36 -96 -80 -46 -44 -92 -80 -101 -80 -11 0 -20
11 -24 28 -4 15 -19 45 -32 67 -14 22 -37 50 -51 63 -14 13 -43 34 -63 48 -23
14 -52 24 -75 24 -20 0 -51 5 -69 12 -27 9 -45 8 -111 -11 -44 -13 -101 -35
-127 -50 -25 -15 -57 -43 -71 -61 -14 -19 -25 -39 -25 -45 0 -7 -9 -20 -20
-30 -11 -10 -20 -25 -20 -32 0 -8 -9 -26 -20 -40 -16 -20 -18 -37 -16 -96 3
-63 6 -72 24 -75 13 -2 27 7 41 26 12 17 21 42 21 57 0 14 10 47 21 73 12 25
32 63 45 84 14 22 55 59 95 85 70 46 73 47 145 46 41 0 88 -6 104 -13 17 -7
46 -34 65 -60 19 -26 43 -68 55 -94 11 -26 20 -63 20 -81 0 -19 -7 -41 -16
-49 -8 -9 -40 -32 -69 -52 -30 -20 -68 -48 -85 -64 -20 -19 -37 -26 -54 -23
-18 4 -26 0 -31 -16 -3 -12 -21 -28 -38 -36 -18 -8 -56 -30 -84 -48 -29 -19
-61 -41 -71 -50 -10 -9 -24 -17 -31 -17 -6 0 -22 -6 -34 -14 -12 -7 -53 -17
-91 -20 -66 -7 -70 -6 -98 20 -18 18 -28 38 -28 57 0 16 9 42 21 58 11 16 19
39 17 52 -2 18 -10 23 -40 25 -20 2 -47 -2 -58 -8 -12 -6 -30 -26 -40 -43 -11
-18 -20 -44 -20 -59 0 -15 -4 -30 -10 -33 -5 -3 -10 -17 -10 -30 0 -13 -5 -27
-11 -30 -6 -4 -14 -17 -19 -29 -4 -11 -3 -29 2 -39 7 -14 19 -17 46 -15 30 2
38 8 40 26 2 13 10 22 21 22 10 0 24 -6 30 -14 6 -8 28 -17 49 -21 20 -4 57
-7 82 -8 34 -1 73 11 158 48 79 35 117 57 125 73 5 12 18 22 27 22 10 0 23 7
30 15 7 8 17 15 22 15 6 0 23 11 40 25 16 14 38 25 48 25 9 0 24 8 31 17 8 9
41 34 73 55 33 21 63 38 68 38 4 0 8 -19 8 -41 0 -33 -9 -54 -42 -100 -24 -33
-51 -59 -61 -59 -10 0 -21 -8 -24 -17 -4 -10 -10 -20 -14 -23 -5 -3 -15 -22
-23 -42 -14 -33 -14 -37 3 -52 10 -9 31 -16 48 -16 17 0 43 10 59 22 15 13 33
23 39 23 5 1 23 6 38 13 18 8 34 27 48 59 12 28 18 57 14 73 -4 18 2 37 20 64
14 20 25 43 25 51 0 8 6 15 13 15 7 0 24 21 38 47 13 25 32 62 43 82 10 20 21
56 25 81 5 36 10 46 28 48 15 2 24 13 28 32 4 17 23 42 45 60 21 16 42 30 48
30 5 0 22 17 38 37 16 21 45 55 65 75 20 21 42 38 48 38 6 0 11 4 11 10 0 5
16 20 35 32 19 13 35 30 35 39 0 9 -7 20 -16 23 -9 3 -28 6 -43 6 -19 0 -40
-13 -67 -39z m-331 -408 c-10 -21 -27 -50 -38 -64 -11 -15 -25 -35 -32 -45
-10 -16 -12 -10 -12 39 -1 50 1 57 19 57 10 0 27 11 37 25 10 13 24 25 30 25
9 0 8 -10 -4 -37z"/>
<path d="M7319 2027 c-15 -12 -36 -38 -48 -58 -13 -22 -32 -40 -48 -44 -14 -3
-41 -23 -60 -43 l-33 -36 -123 -3 c-67 -2 -162 -6 -212 -9 -49 -3 -108 -7
-130 -8 -22 -2 -67 -6 -100 -10 -33 -4 -72 -12 -87 -18 -16 -6 -28 -17 -28
-24 0 -8 6 -14 14 -14 8 0 27 5 43 11 15 5 82 12 148 15 66 3 181 7 255 8 74
2 138 2 143 -1 4 -2 2 -14 -4 -26 -6 -12 -26 -38 -44 -57 -18 -19 -53 -56 -77
-81 -24 -26 -48 -53 -55 -60 -7 -8 -41 -39 -77 -69 -35 -30 -72 -70 -82 -88
-17 -30 -17 -35 -4 -60 9 -15 25 -28 37 -30 12 -2 27 -10 33 -18 9 -9 32 -14
74 -14 38 1 68 6 80 15 11 8 28 12 38 9 11 -3 30 1 43 10 13 9 30 16 36 16 7
0 20 7 29 15 13 12 20 12 41 1 15 -7 41 -16 60 -20 19 -4 41 -7 49 -7 8 0 44
5 80 11 36 6 92 18 125 26 33 9 80 20 105 24 25 5 55 11 67 15 19 6 22 3 25
-26 3 -29 7 -34 41 -42 31 -8 46 -5 85 14 26 12 59 29 75 36 15 8 30 12 35 10
4 -3 47 8 97 24 49 16 104 29 122 29 26 0 36 -5 42 -22 5 -13 17 -30 27 -39
11 -9 33 -21 51 -27 22 -7 53 -8 98 -1 37 5 75 14 85 19 10 6 39 10 65 10 29
0 72 11 120 32 61 26 75 36 75 54 0 16 -11 26 -41 38 -37 15 -43 15 -59 1 -9
-8 -22 -15 -29 -15 -7 0 -26 -11 -43 -25 -16 -14 -35 -25 -43 -25 -7 0 -18 -6
-24 -14 -7 -8 -29 -15 -49 -14 -20 0 -49 -5 -63 -10 -14 -6 -31 -7 -38 -3 -9
6 -9 15 -1 36 8 22 7 33 -5 51 -12 19 -24 24 -57 24 -22 0 -97 -12 -167 -26
-69 -14 -130 -30 -135 -35 -6 -5 -22 -9 -37 -9 -15 0 -31 -4 -34 -10 -3 -5
-13 -10 -21 -10 -8 0 -14 6 -14 14 0 8 8 17 18 20 10 4 37 25 60 48 23 22 42
47 42 53 0 7 -14 15 -31 19 -23 4 -38 0 -57 -15 -15 -11 -47 -33 -72 -49 -25
-16 -61 -32 -80 -36 -19 -3 -49 -12 -66 -19 -16 -8 -73 -24 -125 -36 -51 -13
-118 -24 -146 -27 -33 -2 -53 0 -53 7 0 5 32 32 71 58 40 26 89 59 109 73 21
14 46 38 56 54 16 28 16 29 -7 47 -13 10 -39 19 -58 19 -20 0 -56 -13 -88 -31
-29 -17 -83 -60 -118 -95 -35 -35 -66 -73 -70 -84 -3 -11 -14 -20 -24 -20 -9
0 -22 -5 -28 -11 -7 -7 -42 -25 -79 -40 -38 -16 -105 -34 -152 -40 -69 -9 -86
-9 -93 2 -5 8 -9 22 -9 31 0 9 9 19 19 23 11 3 44 36 75 73 30 37 75 89 98
116 24 27 64 69 89 95 25 25 51 56 58 69 7 12 17 20 22 16 6 -3 25 8 43 25 22
21 42 32 62 31 16 0 130 1 253 1 124 0 229 3 234 6 6 3 78 8 161 10 83 1 185
8 226 14 41 5 91 12 110 14 19 2 87 7 151 9 64 3 127 9 140 14 13 5 71 8 129
7 58 -1 108 -3 113 -4 4 0 7 -8 7 -16 0 -9 6 -18 14 -21 8 -3 34 1 58 9 34 12
43 20 43 38 0 18 -6 25 -24 27 -14 2 -34 10 -45 17 -17 11 -39 11 -106 4 -47
-6 -118 -12 -159 -15 -41 -2 -83 -6 -92 -9 -10 -3 -20 -1 -24 5 -5 7 -11 8
-19 1 -6 -5 -34 -11 -61 -12 -28 -1 -69 -6 -93 -10 -23 -5 -97 -11 -163 -14
-67 -2 -142 -7 -168 -11 -25 -4 -54 -11 -63 -16 -12 -6 -25 -4 -40 5 -13 8
-36 13 -53 11 -16 -2 -51 -8 -77 -12 -26 -5 -51 -5 -55 -1 -4 4 -42 3 -83 -2
-41 -6 -90 -8 -107 -6 -18 3 -35 1 -38 -4 -4 -5 -37 -9 -76 -9 -43 0 -69 4
-69 11 0 6 29 41 65 78 36 37 65 72 65 78 0 5 -11 15 -25 21 -14 7 -29 12 -33
12 -4 0 -19 -10 -33 -23z"/>
<path d="M1731 1980 c-25 -20 -66 -47 -91 -59 -25 -13 -66 -45 -91 -71 -26
-26 -68 -62 -93 -80 -25 -19 -46 -37 -46 -41 0 -4 -9 -10 -20 -14 -11 -3 -39
-30 -62 -60 -23 -29 -52 -59 -66 -66 -13 -8 -31 -27 -39 -43 -9 -16 -19 -43
-24 -60 -6 -19 -4 -44 3 -69 6 -21 21 -46 33 -55 11 -9 31 -31 43 -49 18 -25
20 -36 12 -57 -5 -15 -21 -39 -35 -54 -14 -15 -25 -32 -25 -37 0 -6 -17 -29
-38 -50 -21 -22 -41 -48 -45 -59 -6 -15 -14 -17 -42 -12 -19 4 -42 3 -52 -2
-10 -6 -31 -15 -48 -22 -16 -7 -43 -18 -60 -25 -16 -7 -77 -36 -135 -64 -58
-28 -130 -65 -162 -81 -31 -16 -66 -42 -78 -57 -12 -16 -36 -35 -53 -43 -17
-8 -36 -24 -42 -36 -5 -11 -34 -50 -63 -87 -30 -37 -59 -67 -65 -67 -7 0 -24
-16 -39 -34 -16 -19 -28 -38 -28 -41 0 -4 -25 -30 -55 -58 -30 -28 -55 -56
-55 -63 0 -7 -9 -18 -20 -24 -11 -6 -27 -27 -36 -48 -8 -20 -16 -65 -17 -99
-2 -55 1 -65 26 -91 26 -27 33 -29 95 -27 55 2 80 9 140 39 40 20 86 39 103
43 19 4 35 16 44 34 8 15 24 30 35 34 10 3 44 30 73 58 30 29 67 64 83 78 16
14 63 63 104 108 41 45 77 88 79 94 2 7 24 40 48 73 24 34 49 64 57 67 7 3 27
30 45 61 17 31 40 62 52 68 11 7 30 29 42 48 11 19 27 39 34 43 7 4 13 17 13
27 0 10 16 31 35 46 33 25 44 27 163 32 127 4 128 4 160 -23 29 -24 32 -31 26
-63 -4 -19 -17 -51 -30 -71 -12 -20 -30 -44 -39 -54 -9 -10 -20 -29 -25 -43
-6 -14 -10 -32 -10 -40 0 -8 10 -14 25 -14 16 0 33 12 52 36 15 20 42 51 58
69 17 18 38 54 48 79 l19 45 -29 58 c-28 56 -29 57 -88 71 -33 7 -104 13 -157
13 -54 0 -98 3 -98 7 0 4 9 21 19 37 11 17 38 50 61 75 24 25 49 60 56 78 9
19 21 32 33 32 10 0 25 8 34 18 9 10 30 49 48 87 17 39 44 80 60 93 16 13 29
31 29 39 0 9 15 36 33 60 17 24 54 71 80 105 26 33 66 98 89 145 22 46 45 86
49 89 5 3 9 14 9 24 0 10 -6 22 -12 27 -7 4 -31 8 -52 8 -30 0 -49 -8 -85 -35z
m-25 -126 c-3 -9 -6 -22 -6 -29 0 -8 -19 -38 -43 -67 -24 -29 -56 -75 -71
-101 -16 -26 -53 -69 -82 -95 -37 -32 -54 -55 -54 -71 0 -14 -10 -35 -21 -47
-12 -13 -27 -34 -33 -46 -6 -13 -20 -24 -31 -26 -13 -2 -35 12 -59 37 l-39 39
25 50 c14 27 35 60 47 73 13 13 37 44 53 68 17 24 45 57 62 73 17 16 48 38 70
49 21 11 64 41 95 65 31 24 64 44 75 44 12 0 16 -5 12 -16z m-626 -884 c0 -5
-4 -10 -10 -10 -5 0 -23 -29 -39 -65 -17 -36 -37 -68 -45 -71 -8 -3 -20 -21
-26 -40 -7 -19 -21 -39 -33 -46 -12 -6 -28 -18 -35 -27 -7 -9 -21 -32 -31 -51
-11 -19 -45 -62 -78 -95 -32 -33 -84 -93 -116 -132 -32 -40 -71 -80 -87 -88
-17 -9 -30 -20 -30 -27 0 -6 -16 -26 -36 -44 -19 -19 -41 -34 -48 -34 -7 0
-23 -11 -36 -25 -15 -16 -30 -23 -41 -20 -10 3 -21 0 -26 -8 -4 -7 -37 -23
-72 -35 -45 -15 -69 -18 -82 -12 -9 6 -20 23 -24 40 -4 16 -4 44 0 60 4 17 23
48 43 70 20 22 47 52 59 68 12 15 31 47 43 69 12 23 44 62 72 87 28 25 57 46
65 46 7 0 22 15 33 33 11 17 42 50 69 72 27 22 80 65 118 95 38 30 78 60 88
67 11 6 49 26 85 43 36 17 83 40 105 50 22 10 54 23 70 29 17 5 33 10 38 10 4
1 7 -3 7 -9z"/>
<path d="M6519 1572 c-13 -10 -38 -24 -56 -31 -18 -7 -38 -19 -44 -27 -6 -8
-32 -23 -57 -34 -24 -11 -51 -20 -60 -20 -8 0 -23 -7 -33 -16 -9 -8 -35 -17
-57 -19 -23 -2 -64 -16 -93 -30 -29 -15 -60 -24 -72 -21 -11 3 -33 -2 -48 -10
-15 -7 -37 -14 -49 -14 -11 0 -20 4 -20 10 0 5 23 35 50 65 28 30 50 64 50 75
0 10 -5 22 -10 25 -6 4 -67 -21 -135 -55 -69 -34 -129 -69 -135 -79 -6 -13
-17 -17 -35 -13 l-26 4 33 25 c18 13 33 28 32 33 -1 6 -2 17 -2 25 -1 8 -11
19 -21 25 -14 7 -29 5 -57 -6 -21 -9 -59 -34 -86 -56 -34 -30 -48 -49 -48 -67
0 -14 -9 -37 -20 -51 -11 -14 -20 -33 -20 -42 0 -10 5 -18 11 -18 7 0 41 5 78
12 36 6 75 20 87 30 11 10 28 18 37 18 9 0 19 5 22 10 4 6 22 17 42 25 19 8
39 15 44 15 5 0 9 -9 9 -19 0 -11 7 -27 16 -35 10 -11 33 -16 67 -16 34 1 69
9 102 25 28 14 58 25 68 25 10 0 26 4 36 10 10 5 31 11 46 14 16 3 32 11 36
17 4 7 30 13 58 14 28 1 51 -1 51 -4 0 -4 -10 -15 -22 -26 -13 -11 -41 -27
-62 -35 -22 -8 -41 -20 -43 -26 -2 -6 6 -23 17 -37 17 -22 30 -27 63 -27 33 1
50 8 80 35 22 18 36 38 33 44 -4 5 2 16 13 23 10 7 37 36 59 64 30 38 54 57
103 78 35 15 71 31 79 35 8 5 16 16 18 25 2 9 -2 23 -8 31 -7 9 -30 15 -55 15
-25 0 -52 -7 -66 -18z"/>
<path d="M3360 1439 c-19 -10 -40 -19 -46 -19 -6 0 -19 -9 -29 -20 -10 -11
-24 -20 -32 -20 -8 0 -30 -12 -49 -27 -25 -21 -34 -36 -34 -58 0 -16 -4 -35
-8 -40 -4 -6 -18 -15 -32 -22 -14 -6 -41 -14 -60 -16 -19 -3 -56 -12 -81 -20
-25 -8 -52 -12 -58 -7 -10 6 -9 13 4 33 9 14 15 36 13 49 -2 16 -14 26 -40 35
-30 10 -43 10 -65 -1 -16 -8 -44 -19 -64 -25 -19 -6 -45 -11 -58 -11 -12 0
-37 -6 -55 -14 -18 -7 -52 -17 -75 -21 -33 -5 -41 -4 -41 9 0 8 9 20 20 26 13
7 20 21 20 40 0 23 5 30 19 30 10 0 24 7 31 15 10 12 10 18 -1 31 -9 11 -23
14 -47 10 -19 -3 -52 -17 -72 -31 -21 -15 -40 -35 -43 -45 -3 -12 -18 -20 -48
-25 -23 -4 -70 -22 -103 -40 -34 -18 -83 -38 -110 -44 -27 -7 -51 -9 -55 -6
-3 4 6 17 21 29 26 20 27 23 12 44 -8 12 -26 22 -40 22 -13 0 -24 6 -24 13 0
7 14 23 30 35 19 14 30 31 30 47 0 20 -7 26 -41 35 -33 9 -49 8 -86 -6 -25
-10 -74 -38 -107 -63 -34 -24 -84 -63 -111 -87 -45 -38 -52 -50 -64 -103 -7
-33 -10 -72 -7 -86 4 -14 14 -29 23 -32 8 -3 36 1 62 11 25 9 57 16 71 16 14
0 66 10 115 21 50 12 111 30 137 40 26 11 57 19 71 19 13 0 34 11 47 25 13 14
35 25 48 25 14 0 40 10 59 21 19 12 37 19 40 15 3 -3 -2 -15 -13 -27 -10 -12
-35 -29 -54 -38 -22 -10 -36 -24 -38 -38 -3 -17 3 -24 22 -29 15 -3 43 -3 64
1 20 3 46 12 58 20 11 7 36 18 55 23 19 6 54 18 79 28 25 9 70 22 101 28 l56
12 -1 -35 c-1 -35 0 -36 44 -43 25 -4 69 -8 98 -8 29 0 62 4 72 10 10 5 30 10
44 10 14 0 28 5 31 10 3 6 16 10 28 10 12 0 35 7 51 15 15 8 47 15 69 15 22 0
48 -7 56 -15 9 -8 35 -17 59 -21 35 -5 43 -4 49 12 3 10 2 19 -3 21 -5 2 -25
13 -44 24 l-34 21 50 27 c28 14 63 35 78 46 15 11 40 31 57 43 16 13 29 30 29
37 0 7 -15 23 -34 34 -18 12 -44 21 -57 20 -13 0 -40 -9 -59 -20z m-1266 -89
c-1 -8 -17 -40 -37 -71 -29 -46 -47 -62 -101 -88 -36 -18 -70 -30 -75 -27 -6
4 -7 14 -4 23 4 9 23 33 43 54 20 21 61 58 91 83 30 25 61 45 69 43 8 -1 15
-9 14 -17z m1276 12 c0 -5 -18 -23 -40 -41 -22 -18 -45 -29 -50 -26 -6 4 4 21
22 41 18 19 40 34 50 34 10 0 18 -4 18 -8z"/>
<path d="M3533 1231 c-13 -11 -23 -27 -23 -37 0 -15 7 -16 61 -10 33 3 65 8
70 12 5 3 9 13 9 24 0 10 -7 21 -16 24 -9 3 -30 6 -47 6 -18 -1 -42 -9 -54
-19z"/>
</g>
</svg>
